<svg xmlns="http://www.w3.org/2000/svg" xmlns:xlink="http://www.w3.org/1999/xlink" contentStyleType="text/css" data-diagram-type="DESCRIPTION" height="767px" preserveAspectRatio="none" style="width:2602px;height:767px;background:#FFFFFF;" version="1.1" viewBox="0 0 2602 767" width="2602px" zoomAndPan="magnify"><title>ARQUITECTURA - Hexagonal + Vertical Slicing</title><defs/><g><text fill="#000000" font-family="sans-serif" font-size="14" font-weight="bold" lengthAdjust="spacing" textLength="314.0048" x="1137.4097" y="24.9659">ARQUITECTURA - Hexagonal + Vertical Slicing</text><!--cluster INFRA--><g id="cluster_INFRA"><rect fill="transparent" height="337.21" rx="2.5" ry="2.5" style="stroke:#181818;stroke-width:1;" width="1229" x="7" y="47.0679"/><text fill="#000000" font-family="sans-serif" font-size="14" font-weight="bold" lengthAdjust="spacing" textLength="123.7455" x="559.6272" y="64.0339">INFRASTRUCTURE</text></g><!--cluster APP--><g id="cluster_APP"><rect fill="transparent" height="496.27" rx="2.5" ry="2.5" style="stroke:#181818;stroke-width:1;" width="753" x="1569" y="47.0679"/><text fill="#000000" font-family="sans-serif" font-size="14" font-weight="bold" lengthAdjust="spacing" textLength="95.2556" x="1897.8722" y="64.0339">APPLICATION</text></g><!--cluster DOM--><g id="cluster_DOM"><rect fill="transparent" height="337.2" rx="2.5" ry="2.5" style="stroke:#181818;stroke-width:1;" width="716" x="576" y="424.2779"/><text fill="#000000" font-family="sans-serif" font-size="14" font-weight="bold" lengthAdjust="spacing" textLength="61.1938" x="903.4031" y="441.2439">DOMAIN</text></g><!--entity SecurityConfig (JWT + OAuth2)--><g id="elem_SecurityConfig (JWT + OAuth2)"><rect fill="#F1F1F1" height="49.0679" rx="2.5" ry="2.5" style="stroke:#181818;stroke-width:0.5;" width="237.7492" x="31.13" y="93.0679"/><rect fill="#F1F1F1" height="10" style="stroke:#181818;stroke-width:0.5;" width="15" x="248.8792" y="98.0679"/><rect fill="#F1F1F1" height="2" style="stroke:#181818;stroke-width:0.5;" width="4" x="246.8792" y="100.0679"/><rect fill="#F1F1F1" height="2" style="stroke:#181818;stroke-width:0.5;" width="4" x="246.8792" y="104.0679"/><text fill="#000000" font-family="sans-serif" font-size="14" lengthAdjust="spacing" textLength="197.7492" x="46.13" y="128.0339">SecurityConfig (JWT + OAuth2)</text></g><!--entity CloudinaryService--><g id="elem_CloudinaryService"><rect fill="#F1F1F1" height="49.0679" rx="2.5" ry="2.5" style="stroke:#181818;stroke-width:0.5;" width="157.9355" x="1035.03" y="93.0679"/><rect fill="#F1F1F1" height="10" style="stroke:#181818;stroke-width:0.5;" width="15" x="1172.9655" y="98.0679"/><rect fill="#F1F1F1" height="2" style="stroke:#181818;stroke-width:0.5;" width="4" x="1170.9655" y="100.0679"/><rect fill="#F1F1F1" height="2" style="stroke:#181818;stroke-width:0.5;" width="4" x="1170.9655" y="104.0679"/><text fill="#000000" font-family="sans-serif" font-size="14" lengthAdjust="spacing" textLength="117.9355" x="1050.03" y="128.0339">CloudinaryService</text></g><!--entity UserRepositoryAdapter--><g id="elem_UserRepositoryAdapter"><rect fill="#F1F1F1" height="49.0679" rx="2.5" ry="2.5" style="stroke:#181818;stroke-width:0.5;" width="193.8174" x="304.09" y="93.0679"/><rect fill="#F1F1F1" height="10" style="stroke:#181818;stroke-width:0.5;" width="15" x="477.9074" y="98.0679"/><rect fill="#F1F1F1" height="2" style="stroke:#181818;stroke-width:0.5;" width="4" x="475.9074" y="100.0679"/><rect fill="#F1F1F1" height="2" style="stroke:#181818;stroke-width:0.5;" width="4" x="475.9074" y="104.0679"/><text fill="#000000" font-family="sans-serif" font-size="14" lengthAdjust="spacing" textLength="153.8174" x="319.09" y="128.0339">UserRepositoryAdapter</text></g><!--entity ProductoRepositoryAdapter--><g id="elem_ProductoRepositoryAdapter"><rect fill="#F1F1F1" height="49.0679" rx="2.5" ry="2.5" style="stroke:#181818;stroke-width:0.5;" width="223.4273" x="533.29" y="93.0679"/><rect fill="#F1F1F1" height="10" style="stroke:#181818;stroke-width:0.5;" width="15" x="736.7173" y="98.0679"/><rect fill="#F1F1F1" height="2" style="stroke:#181818;stroke-width:0.5;" width="4" x="734.7173" y="100.0679"/><rect fill="#F1F1F1" height="2" style="stroke:#181818;stroke-width:0.5;" width="4" x="734.7173" y="104.0679"/><text fill="#000000" font-family="sans-serif" font-size="14" lengthAdjust="spacing" textLength="183.4273" x="548.29" y="128.0339">ProductoRepositoryAdapter</text></g><!--entity PedidoRepositoryAdapter--><g id="elem_PedidoRepositoryAdapter"><rect fill="#F1F1F1" height="49.0679" rx="2.5" ry="2.5" style="stroke:#181818;stroke-width:0.5;" width="208.8674" x="791.57" y="93.0679"/><rect fill="#F1F1F1" height="10" style="stroke:#181818;stroke-width:0.5;" width="15" x="980.4374" y="98.0679"/><rect fill="#F1F1F1" height="2" style="stroke:#181818;stroke-width:0.5;" width="4" x="978.4374" y="100.0679"/><rect fill="#F1F1F1" height="2" style="stroke:#181818;stroke-width:0.5;" width="4" x="978.4374" y="104.0679"/><text fill="#000000" font-family="sans-serif" font-size="14" lengthAdjust="spacing" textLength="168.8674" x="806.57" y="128.0339">PedidoRepositoryAdapter</text></g><!--entity AuthController--><g id="elem_AuthController"><rect fill="#F1F1F1" height="49.0679" rx="2.5" ry="2.5" style="stroke:#181818;stroke-width:0.5;" width="137.4816" x="165.26" y="202.1379"/><rect fill="#F1F1F1" height="10" style="stroke:#181818;stroke-width:0.5;" width="15" x="282.7416" y="207.1379"/><rect fill="#F1F1F1" height="2" style="stroke:#181818;stroke-width:0.5;" width="4" x="280.7416" y="209.1379"/><rect fill="#F1F1F1" height="2" style="stroke:#181818;stroke-width:0.5;" width="4" x="280.7416" y="213.1379"/><text fill="#000000" font-family="sans-serif" font-size="14" lengthAdjust="spacing" textLength="97.4816" x="180.26" y="237.1039">AuthController</text></g><!--entity UserController--><g id="elem_UserController"><rect fill="#F1F1F1" height="49.0679" rx="2.5" ry="2.5" style="stroke:#181818;stroke-width:0.5;" width="136.7956" x="337.6" y="202.1379"/><rect fill="#F1F1F1" height="10" style="stroke:#181818;stroke-width:0.5;" width="15" x="454.3956" y="207.1379"/><rect fill="#F1F1F1" height="2" style="stroke:#181818;stroke-width:0.5;" width="4" x="452.3956" y="209.1379"/><rect fill="#F1F1F1" height="2" style="stroke:#181818;stroke-width:0.5;" width="4" x="452.3956" y="213.1379"/><text fill="#000000" font-family="sans-serif" font-size="14" lengthAdjust="spacing" textLength="96.7956" x="352.6" y="237.1039">UserController</text></g><!--entity ProfileController--><g id="elem_ProfileController"><rect fill="#F1F1F1" height="49.0679" rx="2.5" ry="2.5" style="stroke:#181818;stroke-width:0.5;" width="148.8356" x="509.58" y="202.1379"/><rect fill="#F1F1F1" height="10" style="stroke:#181818;stroke-width:0.5;" width="15" x="638.4156" y="207.1379"/><rect fill="#F1F1F1" height="2" style="stroke:#181818;stroke-width:0.5;" width="4" x="636.4156" y="209.1379"/><rect fill="#F1F1F1" height="2" style="stroke:#181818;stroke-width:0.5;" width="4" x="636.4156" y="213.1379"/><text fill="#000000" font-family="sans-serif" font-size="14" lengthAdjust="spacing" textLength="108.8356" x="524.58" y="237.1039">ProfileController</text></g><!--entity ProductoController--><g id="elem_ProductoController"><rect fill="#F1F1F1" height="49.0679" rx="2.5" ry="2.5" style="stroke:#181818;stroke-width:0.5;" width="166.4055" x="693.8" y="202.1379"/><rect fill="#F1F1F1" height="10" style="stroke:#181818;stroke-width:0.5;" width="15" x="840.2055" y="207.1379"/><rect fill="#F1F1F1" height="2" style="stroke:#181818;stroke-width:0.5;" width="4" x="838.2055" y="209.1379"/><rect fill="#F1F1F1" height="2" style="stroke:#181818;stroke-width:0.5;" width="4" x="838.2055" y="213.1379"/><text fill="#000000" font-family="sans-serif" font-size="14" lengthAdjust="spacing" textLength="126.4055" x="708.8" y="237.1039">ProductoController</text></g><!--entity AdminProductoController--><g id="elem_AdminProductoController"><rect fill="#F1F1F1" height="49.0679" rx="2.5" ry="2.5" style="stroke:#181818;stroke-width:0.5;" width="209.3154" x="297.34" y="311.2079"/><rect fill="#F1F1F1" height="10" style="stroke:#181818;stroke-width:0.5;" width="15" x="486.6554" y="316.2079"/><rect fill="#F1F1F1" height="2" style="stroke:#181818;stroke-width:0.5;" width="4" x="484.6554" y="318.2079"/><rect fill="#F1F1F1" height="2" style="stroke:#181818;stroke-width:0.5;" width="4" x="484.6554" y="322.2079"/><text fill="#000000" font-family="sans-serif" font-size="14" lengthAdjust="spacing" textLength="169.3154" x="312.34" y="346.1739">AdminProductoController</text></g><!--entity CarritoController--><g id="elem_CarritoController"><rect fill="#F1F1F1" height="49.0679" rx="2.5" ry="2.5" style="stroke:#181818;stroke-width:0.5;" width="151.5796" x="541.21" y="311.2079"/><rect fill="#F1F1F1" height="10" style="stroke:#181818;stroke-width:0.5;" width="15" x="672.7896" y="316.2079"/><rect fill="#F1F1F1" height="2" style="stroke:#181818;stroke-width:0.5;" width="4" x="670.7896" y="318.2079"/><rect fill="#F1F1F1" height="2" style="stroke:#181818;stroke-width:0.5;" width="4" x="670.7896" y="322.2079"/><text fill="#000000" font-family="sans-serif" font-size="14" lengthAdjust="spacing" textLength="111.5796" x="556.21" y="346.1739">CarritoController</text></g><!--entity PedidoController--><g id="elem_PedidoController"><rect fill="#F1F1F1" height="49.0679" rx="2.5" ry="2.5" style="stroke:#181818;stroke-width:0.5;" width="151.8456" x="728.08" y="311.2079"/><rect fill="#F1F1F1" height="10" style="stroke:#181818;stroke-width:0.5;" width="15" x="859.9256" y="316.2079"/><rect fill="#F1F1F1" height="2" style="stroke:#181818;stroke-width:0.5;" width="4" x="857.9256" y="318.2079"/><rect fill="#F1F1F1" height="2" style="stroke:#181818;stroke-width:0.5;" width="4" x="857.9256" y="322.2079"/><text fill="#000000" font-family="sans-serif" font-size="14" lengthAdjust="spacing" textLength="111.8456" x="743.08" y="346.1739">PedidoController</text></g><!--entity AdminPedidoController--><g id="elem_AdminPedidoController"><rect fill="#F1F1F1" height="49.0679" rx="2.5" ry="2.5" style="stroke:#181818;stroke-width:0.5;" width="194.7554" x="914.62" y="311.2079"/><rect fill="#F1F1F1" height="10" style="stroke:#181818;stroke-width:0.5;" width="15" x="1089.3754" y="316.2079"/><rect fill="#F1F1F1" height="2" style="stroke:#181818;stroke-width:0.5;" width="4" x="1087.3754" y="318.2079"/><rect fill="#F1F1F1" height="2" style="stroke:#181818;stroke-width:0.5;" width="4" x="1087.3754" y="322.2079"/><text fill="#000000" font-family="sans-serif" font-size="14" lengthAdjust="spacing" textLength="154.7554" x="929.62" y="346.1739">AdminPedidoController</text></g><!--entity AuthUseCase--><g id="elem_AuthUseCase"><rect fill="#F1F1F1" height="49.0679" rx="2.5" ry="2.5" style="stroke:#181818;stroke-width:0.5;" width="127.4437" x="1593.28" y="93.0679"/><rect fill="#F1F1F1" height="10" style="stroke:#181818;stroke-width:0.5;" width="15" x="1700.7237" y="98.0679"/><rect fill="#F1F1F1" height="2" style="stroke:#181818;stroke-width:0.5;" width="4" x="1698.7237" y="100.0679"/><rect fill="#F1F1F1" height="2" style="stroke:#181818;stroke-width:0.5;" width="4" x="1698.7237" y="104.0679"/><text fill="#000000" font-family="sans-serif" font-size="14" lengthAdjust="spacing" textLength="87.4437" x="1608.28" y="128.0339">AuthUseCase</text></g><!--entity UserUseCase--><g id="elem_UserUseCase"><rect fill="#F1F1F1" height="49.0679" rx="2.5" ry="2.5" style="stroke:#181818;stroke-width:0.5;" width="126.7577" x="1755.62" y="93.0679"/><rect fill="#F1F1F1" height="10" style="stroke:#181818;stroke-width:0.5;" width="15" x="1862.3777" y="98.0679"/><rect fill="#F1F1F1" height="2" style="stroke:#181818;stroke-width:0.5;" width="4" x="1860.3777" y="100.0679"/><rect fill="#F1F1F1" height="2" style="stroke:#181818;stroke-width:0.5;" width="4" x="1860.3777" y="104.0679"/><text fill="#000000" font-family="sans-serif" font-size="14" lengthAdjust="spacing" textLength="86.7577" x="1770.62" y="128.0339">UserUseCase</text></g><!--entity AdminUserUseCase--><g id="elem_AdminUserUseCase"><rect fill="#F1F1F1" height="49.0679" rx="2.5" ry="2.5" style="stroke:#181818;stroke-width:0.5;" width="169.6675" x="1917.17" y="93.0679"/><rect fill="#F1F1F1" height="10" style="stroke:#181818;stroke-width:0.5;" width="15" x="2066.8375" y="98.0679"/><rect fill="#F1F1F1" height="2" style="stroke:#181818;stroke-width:0.5;" width="4" x="2064.8375" y="100.0679"/><rect fill="#F1F1F1" height="2" style="stroke:#181818;stroke-width:0.5;" width="4" x="2064.8375" y="104.0679"/><text fill="#000000" font-family="sans-serif" font-size="14" lengthAdjust="spacing" textLength="129.6675" x="1932.17" y="128.0339">AdminUserUseCase</text></g><!--entity ProductoUseCase--><g id="elem_ProductoUseCase"><rect fill="#F1F1F1" height="49.0679" rx="2.5" ry="2.5" style="stroke:#181818;stroke-width:0.5;" width="156.3676" x="2121.82" y="93.0679"/><rect fill="#F1F1F1" height="10" style="stroke:#181818;stroke-width:0.5;" width="15" x="2258.1876" y="98.0679"/><rect fill="#F1F1F1" height="2" style="stroke:#181818;stroke-width:0.5;" width="4" x="2256.1876" y="100.0679"/><rect fill="#F1F1F1" height="2" style="stroke:#181818;stroke-width:0.5;" width="4" x="2256.1876" y="104.0679"/><text fill="#000000" font-family="sans-serif" font-size="14" lengthAdjust="spacing" textLength="116.3676" x="2136.82" y="128.0339">ProductoUseCase</text></g><!--entity CarritoUseCase--><g id="elem_CarritoUseCase"><rect fill="#F1F1F1" height="49.0679" rx="2.5" ry="2.5" style="stroke:#181818;stroke-width:0.5;" width="141.5416" x="1593.23" y="202.1379"/><rect fill="#F1F1F1" height="10" style="stroke:#181818;stroke-width:0.5;" width="15" x="1714.7716" y="207.1379"/><rect fill="#F1F1F1" height="2" style="stroke:#181818;stroke-width:0.5;" width="4" x="1712.7716" y="209.1379"/><rect fill="#F1F1F1" height="2" style="stroke:#181818;stroke-width:0.5;" width="4" x="1712.7716" y="213.1379"/><text fill="#000000" font-family="sans-serif" font-size="14" lengthAdjust="spacing" textLength="101.5416" x="1608.23" y="237.1039">CarritoUseCase</text></g><!--entity PedidoUseCase--><g id="elem_PedidoUseCase"><rect fill="#F1F1F1" height="49.0679" rx="2.5" ry="2.5" style="stroke:#181818;stroke-width:0.5;" width="141.8076" x="1770.1" y="202.1379"/><rect fill="#F1F1F1" height="10" style="stroke:#181818;stroke-width:0.5;" width="15" x="1891.9076" y="207.1379"/><rect fill="#F1F1F1" height="2" style="stroke:#181818;stroke-width:0.5;" width="4" x="1889.9076" y="209.1379"/><rect fill="#F1F1F1" height="2" style="stroke:#181818;stroke-width:0.5;" width="4" x="1889.9076" y="213.1379"/><text fill="#000000" font-family="sans-serif" font-size="14" lengthAdjust="spacing" textLength="101.8076" x="1785.1" y="237.1039">PedidoUseCase</text></g><!--entity DireccionUseCase--><g id="elem_DireccionUseCase"><rect fill="#F1F1F1" height="49.0679" rx="2.5" ry="2.5" style="stroke:#181818;stroke-width:0.5;" width="157.8235" x="1947.09" y="202.1379"/><rect fill="#F1F1F1" height="10" style="stroke:#181818;stroke-width:0.5;" width="15" x="2084.9135" y="207.1379"/><rect fill="#F1F1F1" height="2" style="stroke:#181818;stroke-width:0.5;" width="4" x="2082.9135" y="209.1379"/><rect fill="#F1F1F1" height="2" style="stroke:#181818;stroke-width:0.5;" width="4" x="2082.9135" y="213.1379"/><text fill="#000000" font-family="sans-serif" font-size="14" lengthAdjust="spacing" textLength="117.8235" x="1962.09" y="237.1039">DireccionUseCase</text></g><!--entity RegisterRequest--><g id="elem_RegisterRequest"><rect fill="#F1F1F1" height="49.0679" rx="2.5" ry="2.5" style="stroke:#181818;stroke-width:0.5;" width="147.7856" x="2140.11" y="202.1379"/><rect fill="#F1F1F1" height="10" style="stroke:#181818;stroke-width:0.5;" width="15" x="2267.8956" y="207.1379"/><rect fill="#F1F1F1" height="2" style="stroke:#181818;stroke-width:0.5;" width="4" x="2265.8956" y="209.1379"/><rect fill="#F1F1F1" height="2" style="stroke:#181818;stroke-width:0.5;" width="4" x="2265.8956" y="213.1379"/><text fill="#000000" font-family="sans-serif" font-size="14" lengthAdjust="spacing" textLength="107.7856" x="2155.11" y="237.1039">RegisterRequest</text></g><!--entity LoginRequest--><g id="elem_LoginRequest"><rect fill="#F1F1F1" height="49.0679" rx="2.5" ry="2.5" style="stroke:#181818;stroke-width:0.5;" width="130.2016" x="1594.9" y="311.2079"/><rect fill="#F1F1F1" height="10" style="stroke:#181818;stroke-width:0.5;" width="15" x="1705.1016" y="316.2079"/><rect fill="#F1F1F1" height="2" style="stroke:#181818;stroke-width:0.5;" width="4" x="1703.1016" y="318.2079"/><rect fill="#F1F1F1" height="2" style="stroke:#181818;stroke-width:0.5;" width="4" x="1703.1016" y="322.2079"/><text fill="#000000" font-family="sans-serif" font-size="14" lengthAdjust="spacing" textLength="90.2016" x="1609.9" y="346.1739">LoginRequest</text></g><!--entity ProductoRequest--><g id="elem_ProductoRequest"><rect fill="#F1F1F1" height="49.0679" rx="2.5" ry="2.5" style="stroke:#181818;stroke-width:0.5;" width="153.7496" x="1760.13" y="311.2079"/><rect fill="#F1F1F1" height="10" style="stroke:#181818;stroke-width:0.5;" width="15" x="1893.8796" y="316.2079"/><rect fill="#F1F1F1" height="2" style="stroke:#181818;stroke-width:0.5;" width="4" x="1891.8796" y="318.2079"/><rect fill="#F1F1F1" height="2" style="stroke:#181818;stroke-width:0.5;" width="4" x="1891.8796" y="322.2079"/><text fill="#000000" font-family="sans-serif" font-size="14" lengthAdjust="spacing" textLength="113.7496" x="1775.13" y="346.1739">ProductoRequest</text></g><!--entity ProductoResponse--><g id="elem_ProductoResponse"><rect fill="#F1F1F1" height="49.0679" rx="2.5" ry="2.5" style="stroke:#181818;stroke-width:0.5;" width="163.8715" x="1949.06" y="311.2079"/><rect fill="#F1F1F1" height="10" style="stroke:#181818;stroke-width:0.5;" width="15" x="2092.9315" y="316.2079"/><rect fill="#F1F1F1" height="2" style="stroke:#181818;stroke-width:0.5;" width="4" x="2090.9315" y="318.2079"/><rect fill="#F1F1F1" height="2" style="stroke:#181818;stroke-width:0.5;" width="4" x="2090.9315" y="322.2079"/><text fill="#000000" font-family="sans-serif" font-size="14" lengthAdjust="spacing" textLength="123.8715" x="1964.06" y="346.1739">ProductoResponse</text></g><!--entity PedidoRequest--><g id="elem_PedidoRequest"><rect fill="#F1F1F1" height="49.0679" rx="2.5" ry="2.5" style="stroke:#181818;stroke-width:0.5;" width="139.1896" x="2148.41" y="311.2079"/><rect fill="#F1F1F1" height="10" style="stroke:#181818;stroke-width:0.5;" width="15" x="2267.5996" y="316.2079"/><rect fill="#F1F1F1" height="2" style="stroke:#181818;stroke-width:0.5;" width="4" x="2265.5996" y="318.2079"/><rect fill="#F1F1F1" height="2" style="stroke:#181818;stroke-width:0.5;" width="4" x="2265.5996" y="322.2079"/><text fill="#000000" font-family="sans-serif" font-size="14" lengthAdjust="spacing" textLength="99.1896" x="2163.41" y="346.1739">PedidoRequest</text></g><!--entity PedidoResponse--><g id="elem_PedidoResponse"><rect fill="#F1F1F1" height="49.0679" rx="2.5" ry="2.5" style="stroke:#181818;stroke-width:0.5;" width="149.3116" x="1593.34" y="470.2779"/><rect fill="#F1F1F1" height="10" style="stroke:#181818;stroke-width:0.5;" width="15" x="1722.6516" y="475.2779"/><rect fill="#F1F1F1" height="2" style="stroke:#181818;stroke-width:0.5;" width="4" x="1720.6516" y="477.2779"/><rect fill="#F1F1F1" height="2" style="stroke:#181818;stroke-width:0.5;" width="4" x="1720.6516" y="481.2779"/><text fill="#000000" font-family="sans-serif" font-size="14" lengthAdjust="spacing" textLength="109.3116" x="1608.34" y="505.2439">PedidoResponse</text></g><!--entity AdminUserRequest--><g id="elem_AdminUserRequest"><rect fill="#F1F1F1" height="49.0679" rx="2.5" ry="2.5" style="stroke:#181818;stroke-width:0.5;" width="167.0495" x="1777.48" y="470.2779"/><rect fill="#F1F1F1" height="10" style="stroke:#181818;stroke-width:0.5;" width="15" x="1924.5295" y="475.2779"/><rect fill="#F1F1F1" height="2" style="stroke:#181818;stroke-width:0.5;" width="4" x="1922.5295" y="477.2779"/><rect fill="#F1F1F1" height="2" style="stroke:#181818;stroke-width:0.5;" width="4" x="1922.5295" y="481.2779"/><text fill="#000000" font-family="sans-serif" font-size="14" lengthAdjust="spacing" textLength="127.0495" x="1792.48" y="505.2439">AdminUserRequest</text></g><!--entity AdminUserResponse--><g id="elem_AdminUserResponse"><rect fill="#F1F1F1" height="49.0679" rx="2.5" ry="2.5" style="stroke:#181818;stroke-width:0.5;" width="177.1715" x="1979.41" y="470.2779"/><rect fill="#F1F1F1" height="10" style="stroke:#181818;stroke-width:0.5;" width="15" x="2136.5815" y="475.2779"/><rect fill="#F1F1F1" height="2" style="stroke:#181818;stroke-width:0.5;" width="4" x="2134.5815" y="477.2779"/><rect fill="#F1F1F1" height="2" style="stroke:#181818;stroke-width:0.5;" width="4" x="2134.5815" y="481.2779"/><text fill="#000000" font-family="sans-serif" font-size="14" lengthAdjust="spacing" textLength="137.1715" x="1994.41" y="505.2439">AdminUserResponse</text></g><!--entity User--><g id="elem_User"><rect fill="#F1F1F1" height="49.0679" rx="2.5" ry="2.5" style="stroke:#181818;stroke-width:0.5;" width="70.6179" x="602.69" y="470.2779"/><rect fill="#F1F1F1" height="10" style="stroke:#181818;stroke-width:0.5;" width="15" x="653.3079" y="475.2779"/><rect fill="#F1F1F1" height="2" style="stroke:#181818;stroke-width:0.5;" width="4" x="651.3079" y="477.2779"/><rect fill="#F1F1F1" height="2" style="stroke:#181818;stroke-width:0.5;" width="4" x="651.3079" y="481.2779"/><text fill="#000000" font-family="sans-serif" font-size="14" lengthAdjust="spacing" textLength="30.6179" x="617.69" y="505.2439">User</text></g><!--entity Producto--><g id="elem_Producto"><rect fill="#F1F1F1" height="49.0679" rx="2.5" ry="2.5" style="stroke:#181818;stroke-width:0.5;" width="100.2278" x="707.89" y="470.2779"/><rect fill="#F1F1F1" height="10" style="stroke:#181818;stroke-width:0.5;" width="15" x="788.1178" y="475.2779"/><rect fill="#F1F1F1" height="2" style="stroke:#181818;stroke-width:0.5;" width="4" x="786.1178" y="477.2779"/><rect fill="#F1F1F1" height="2" style="stroke:#181818;stroke-width:0.5;" width="4" x="786.1178" y="481.2779"/><text fill="#000000" font-family="sans-serif" font-size="14" lengthAdjust="spacing" textLength="60.2278" x="722.89" y="505.2439">Producto</text></g><!--entity Pedido--><g id="elem_Pedido"><rect fill="#F1F1F1" height="49.0679" rx="2.5" ry="2.5" style="stroke:#181818;stroke-width:0.5;" width="85.6678" x="843.17" y="470.2779"/><rect fill="#F1F1F1" height="10" style="stroke:#181818;stroke-width:0.5;" width="15" x="908.8378" y="475.2779"/><rect fill="#F1F1F1" height="2" style="stroke:#181818;stroke-width:0.5;" width="4" x="906.8378" y="477.2779"/><rect fill="#F1F1F1" height="2" style="stroke:#181818;stroke-width:0.5;" width="4" x="906.8378" y="481.2779"/><text fill="#000000" font-family="sans-serif" font-size="14" lengthAdjust="spacing" textLength="45.6678" x="858.17" y="505.2439">Pedido</text></g><!--entity Carrito--><g id="elem_Carrito"><rect fill="#F1F1F1" height="49.0679" rx="2.5" ry="2.5" style="stroke:#181818;stroke-width:0.5;" width="85.4018" x="964.3" y="470.2779"/><rect fill="#F1F1F1" height="10" style="stroke:#181818;stroke-width:0.5;" width="15" x="1029.7018" y="475.2779"/><rect fill="#F1F1F1" height="2" style="stroke:#181818;stroke-width:0.5;" width="4" x="1027.7018" y="477.2779"/><rect fill="#F1F1F1" height="2" style="stroke:#181818;stroke-width:0.5;" width="4" x="1027.7018" y="481.2779"/><text fill="#000000" font-family="sans-serif" font-size="14" lengthAdjust="spacing" textLength="45.4018" x="979.3" y="505.2439">Carrito</text></g><!--entity Cupon--><g id="elem_Cupon"><rect fill="#F1F1F1" height="49.0679" rx="2.5" ry="2.5" style="stroke:#181818;stroke-width:0.5;" width="83.2318" x="600.38" y="579.3379"/><rect fill="#F1F1F1" height="10" style="stroke:#181818;stroke-width:0.5;" width="15" x="663.6118" y="584.3379"/><rect fill="#F1F1F1" height="2" style="stroke:#181818;stroke-width:0.5;" width="4" x="661.6118" y="586.3379"/><rect fill="#F1F1F1" height="2" style="stroke:#181818;stroke-width:0.5;" width="4" x="661.6118" y="590.3379"/><text fill="#000000" font-family="sans-serif" font-size="14" lengthAdjust="spacing" textLength="43.2318" x="615.38" y="614.3039">Cupon</text></g><!--entity Categoria--><g id="elem_Categoria"><rect fill="#F1F1F1" height="49.0679" rx="2.5" ry="2.5" style="stroke:#181818;stroke-width:0.5;" width="103.9798" x="719.01" y="579.3379"/><rect fill="#F1F1F1" height="10" style="stroke:#181818;stroke-width:0.5;" width="15" x="802.9898" y="584.3379"/><rect fill="#F1F1F1" height="2" style="stroke:#181818;stroke-width:0.5;" width="4" x="800.9898" y="586.3379"/><rect fill="#F1F1F1" height="2" style="stroke:#181818;stroke-width:0.5;" width="4" x="800.9898" y="590.3379"/><text fill="#000000" font-family="sans-serif" font-size="14" lengthAdjust="spacing" textLength="63.9798" x="734.01" y="614.3039">Categoria</text></g><!--entity UserRepositoryPort--><g id="elem_UserRepositoryPort"><rect fill="#F1F1F1" height="49.0679" rx="2.5" ry="2.5" style="stroke:#181818;stroke-width:0.5;" width="168.8415" x="857.58" y="579.3379"/><rect fill="#F1F1F1" height="10" style="stroke:#181818;stroke-width:0.5;" width="15" x="1006.4215" y="584.3379"/><rect fill="#F1F1F1" height="2" style="stroke:#181818;stroke-width:0.5;" width="4" x="1004.4215" y="586.3379"/><rect fill="#F1F1F1" height="2" style="stroke:#181818;stroke-width:0.5;" width="4" x="1004.4215" y="590.3379"/><text fill="#000000" font-family="sans-serif" font-size="14" lengthAdjust="spacing" textLength="128.8415" x="872.58" y="614.3039">UserRepositoryPort</text></g><!--entity ProductoRepositoryPort--><g id="elem_ProductoRepositoryPort"><rect fill="#F1F1F1" height="49.0679" rx="2.5" ry="2.5" style="stroke:#181818;stroke-width:0.5;" width="198.4514" x="1061.77" y="579.3379"/><rect fill="#F1F1F1" height="10" style="stroke:#181818;stroke-width:0.5;" width="15" x="1240.2214" y="584.3379"/><rect fill="#F1F1F1" height="2" style="stroke:#181818;stroke-width:0.5;" width="4" x="1238.2214" y="586.3379"/><rect fill="#F1F1F1" height="2" style="stroke:#181818;stroke-width:0.5;" width="4" x="1238.2214" y="590.3379"/><text fill="#000000" font-family="sans-serif" font-size="14" lengthAdjust="spacing" textLength="158.4514" x="1076.77" y="614.3039">ProductoRepositoryPort</text></g><!--entity PedidoRepositoryPort--><g id="elem_PedidoRepositoryPort"><rect fill="#F1F1F1" height="49.0679" rx="2.5" ry="2.5" style="stroke:#181818;stroke-width:0.5;" width="183.8915" x="600.05" y="688.4079"/><rect fill="#F1F1F1" height="10" style="stroke:#181818;stroke-width:0.5;" width="15" x="763.9415" y="693.4079"/><rect fill="#F1F1F1" height="2" style="stroke:#181818;stroke-width:0.5;" width="4" x="761.9415" y="695.4079"/><rect fill="#F1F1F1" height="2" style="stroke:#181818;stroke-width:0.5;" width="4" x="761.9415" y="699.4079"/><text fill="#000000" font-family="sans-serif" font-size="14" lengthAdjust="spacing" textLength="143.8915" x="615.05" y="723.3739">PedidoRepositoryPort</text></g><!--entity CarritoRepositoryPort--><g id="elem_CarritoRepositoryPort"><rect fill="#F1F1F1" height="49.0679" rx="2.5" ry="2.5" style="stroke:#181818;stroke-width:0.5;" width="183.6255" x="819.19" y="688.4079"/><rect fill="#F1F1F1" height="10" style="stroke:#181818;stroke-width:0.5;" width="15" x="982.8155" y="693.4079"/><rect fill="#F1F1F1" height="2" style="stroke:#181818;stroke-width:0.5;" width="4" x="980.8155" y="695.4079"/><rect fill="#F1F1F1" height="2" style="stroke:#181818;stroke-width:0.5;" width="4" x="980.8155" y="699.4079"/><text fill="#000000" font-family="sans-serif" font-size="14" lengthAdjust="spacing" textLength="143.6255" x="834.19" y="723.3739">CarritoRepositoryPort</text></g><!--entity CuponRepositoryPort--><g id="elem_CuponRepositoryPort"><rect fill="#F1F1F1" height="49.0679" rx="2.5" ry="2.5" style="stroke:#181818;stroke-width:0.5;" width="181.4555" x="1038.27" y="688.4079"/><rect fill="#F1F1F1" height="10" style="stroke:#181818;stroke-width:0.5;" width="15" x="1199.7255" y="693.4079"/><rect fill="#F1F1F1" height="2" style="stroke:#181818;stroke-width:0.5;" width="4" x="1197.7255" y="695.4079"/><rect fill="#F1F1F1" height="2" style="stroke:#181818;stroke-width:0.5;" width="4" x="1197.7255" y="699.4079"/><text fill="#000000" font-family="sans-serif" font-size="14" lengthAdjust="spacing" textLength="141.4555" x="1053.27" y="723.3739">CuponRepositoryPort</text></g><!--entity Cloudinary API--><g id="elem_Cloudinary API"><rect fill="#F1F1F1" height="49.0679" rx="2.5" ry="2.5" style="stroke:#181818;stroke-width:0.5;" width="137.0336" x="1260.48" y="202.1379"/><rect fill="#F1F1F1" height="10" style="stroke:#181818;stroke-width:0.5;" width="15" x="1377.5136" y="207.1379"/><rect fill="#F1F1F1" height="2" style="stroke:#181818;stroke-width:0.5;" width="4" x="1375.5136" y="209.1379"/><rect fill="#F1F1F1" height="2" style="stroke:#181818;stroke-width:0.5;" width="4" x="1375.5136" y="213.1379"/><text fill="#000000" font-family="sans-serif" font-size="14" lengthAdjust="spacing" textLength="97.0336" x="1275.48" y="237.1039">Cloudinary API</text></g><g id="elem_GMN46"><path d="M1263.31,94.8979 L1263.31,140.3099 L1544.6873,140.3099 L1544.6873,104.8979 L1534.6873,94.8979 L1263.31,94.8979 " fill="#FEFFDD" style="stroke:#181818;stroke-width:0.5;"/><path d="M1534.6873,94.8979 L1534.6873,104.8979 L1544.6873,104.8979 L1534.6873,94.8979 " fill="#FEFFDD" style="stroke:#181818;stroke-width:1;"/><text fill="#000000" font-family="sans-serif" font-size="13" lengthAdjust="spacing" textLength="260.3773" x="1269.31" y="113.7949">Adaptadores de entrada (Controllers REST)</text><text fill="#000000" font-family="sans-serif" font-size="13" lengthAdjust="spacing" textLength="249.8862" x="1269.31" y="131.5009">y Adaptadores de salida (JPA, Cloudinary)</text></g><g id="elem_GMN49"><path d="M2348.99,94.8979 L2348.99,140.3099 L2557.0081,140.3099 L2557.0081,104.8979 L2547.0081,94.8979 L2348.99,94.8979 " fill="#FEFFDD" style="stroke:#181818;stroke-width:0.5;"/><path d="M2547.0081,94.8979 L2547.0081,104.8979 L2557.0081,104.8979 L2547.0081,94.8979 " fill="#FEFFDD" style="stroke:#181818;stroke-width:1;"/><text fill="#000000" font-family="sans-serif" font-size="13" lengthAdjust="spacing" textLength="187.0181" x="2354.99" y="113.7949">Puertos de entrada (UseCases)</text><text fill="#000000" font-family="sans-serif" font-size="13" lengthAdjust="spacing" textLength="43.108" x="2354.99" y="131.5009">y DTOs</text></g><g id="elem_GMN52"><path d="M2346.18,472.0979 L2346.18,517.5099 L2595.8242,517.5099 L2595.8242,482.0979 L2585.8242,472.0979 L2346.18,472.0979 " fill="#FEFFDD" style="stroke:#181818;stroke-width:0.5;"/><path d="M2585.8242,472.0979 L2585.8242,482.0979 L2595.8242,482.0979 L2585.8242,472.0979 " fill="#FEFFDD" style="stroke:#181818;stroke-width:1;"/><text fill="#000000" font-family="sans-serif" font-size="13" lengthAdjust="spacing" textLength="228.6442" x="2352.18" y="490.9949">Modelo de dominio (entidades puras)</text><text fill="#000000" font-family="sans-serif" font-size="13" lengthAdjust="spacing" textLength="186.5242" x="2352.18" y="508.7009">y Puertos de salida (interfaces)</text></g><!--link CloudinaryService to Cloudinary API--><g id="link_CloudinaryService_Cloudinary API"><path d="M1162.25,142.6279 C1197.66,160.2679 1240.1695,181.4325 1275.5395,199.0525 " fill="transparent" id="CloudinaryService-to-Cloudinary API" style="stroke:#181818;stroke-width:1;"/><polygon fill="#181818" points="1280.91,201.7279,1274.6378,194.1345,1276.4346,199.4984,1271.0707,201.2952,1280.91,201.7279" style="stroke:#181818;stroke-width:1;"/></g><!--link INFRA to GMN46--><g id="link_INFRA_GMN46"><path d="M1236.0442,117.6079 C1236.0888,117.6079 1236.1333,117.6079 1236.1779,117.6079 C1236.5345,117.6079 1236.8911,117.6079 1237.2477,117.6079 C1240.1003,117.6079 1242.9531,117.6079 1245.8062,117.6079 C1251.5125,117.6079 1257.22,117.6079 1262.93,117.6079 " fill="transparent" id="INFRA-GMN46" style="stroke:#181818;stroke-width:1;stroke-dasharray:7.0,7.0;"/></g><!--link APP to GMN49--><g id="link_APP_GMN49"><path d="M2322.0609,117.6079 C2322.1048,117.6079 2322.1488,117.6079 2322.1927,117.6079 C2322.5443,117.6079 2322.8958,117.6079 2323.2473,117.6079 C2326.0597,117.6079 2328.8719,117.6079 2331.6838,117.6079 C2337.3075,117.6079 2342.93,117.6079 2348.55,117.6079 " fill="transparent" id="APP-GMN49" style="stroke:#181818;stroke-width:1;stroke-dasharray:7.0,7.0;"/></g><!--link DOM to GMN52--><g id="link_DOM_GMN52"><path d="M1292.4353,491.1792 C1292.5898,491.1137 1292.7463,491.0475 1292.9048,490.9804 C1293.2218,490.8464 1293.5468,490.7091 1293.8797,490.5687 C1294.5454,490.288 1295.2426,489.9948 1295.9708,489.6895 C1301.7959,487.2477 1309.5981,484.0369 1319.0437,480.2871 C1337.935,472.7876 1363.4,463.1323 1392.77,453.1617 C1451.51,433.2204 1525.87,412.0179 1594.5,404.2779 C1632.7,399.9679 2248.3,399.9679 2286.5,404.2779 C2345.53,410.9379 2405.82,447.2279 2440.76,471.7879 " fill="transparent" id="DOM-GMN52" style="stroke:#181818;stroke-width:1;stroke-dasharray:7.0,7.0;"/></g><!--SRC=[TLJ1Rjim3BtxAuYU4covx9Z30CF9C1TjuzdETkXw42p59UgAdYGF2uRz-oZRgHKtkLcFJtmazMZxWheLHhn2AweNKQl27Hi5HbLEwBfHaKF7vpZ_ja_BRLBkynXMy5Nz4JLfqS07-AwCmue_YmOhr7KKZPdW9dtuaiT5cU_zlUqD20iz17yZWCT2LPr1Tqn87x26nUsFajFjuiuzVre-UKRIK2TH2tCibFcDbUhHlLKcLorPT6IEiHIjKwQFP8PaLpcw4bKIvPMO5-KwdA6c6I4lCuCu_m4RzHxjLMTmB5zHNuabmd3dStGey6AQTv5_mPZZBBjBaxXCTm_zZFayJDXtnMqamawJ2yzzxZbuAZd4ndhFQ7r98R91Tas5f4CmLpLQvn_iLwUiwx4xgb67mFHkbp3RaZuJFQEDI41wwoha1U296evmixkFqs5w_3bCpxFFIWa4mwaCtnrd7L6dQZ8eBfWr8-EkE7KApMpw5XZbBaMy-1pdzYui4AnMdyF5OhEaJr6aoV7IO_tiW0xZagwXtn0XoIWBKe5Y-mafO34PqKA-BShbJtsSawreq7Dli_WZJ7hBcPJtwXgoZdyYT2uokiZsoJVbpivk-dTQmpr9rP2_A8bV60aMd86L9PVHTaOCzmE1Ks6esPO7KR52z1y0]--></g></svg>